<mxfile host="Electron" agent="Mozilla/5.0 (Windows NT 10.0; Win64; x64) AppleWebKit/537.36 (KHTML, like Gecko) draw.io/28.0.6 Chrome/138.0.7204.100 Electron/37.2.3 Safari/537.36" version="28.0.6">
  <diagram name="第 1 页" id="1PkCeBMyRakO2vi7kMsx">
    <mxGraphModel dx="485" dy="331" grid="1" gridSize="10" guides="1" tooltips="1" connect="1" arrows="1" fold="1" page="1" pageScale="1" pageWidth="827" pageHeight="1169" math="0" shadow="0">
      <root>
        <mxCell id="0" />
        <mxCell id="1" parent="0" />
        <mxCell id="fC6sDNkktZNIzBsTSUob-1" value="StudentLoader" style="swimlane;fontStyle=1;align=center;verticalAlign=top;childLayout=stackLayout;horizontal=1;startSize=26;horizontalStack=0;resizeParent=1;resizeParentMax=0;resizeLast=0;collapsible=1;marginBottom=0;whiteSpace=wrap;html=1;" parent="1" vertex="1">
          <mxGeometry x="290" y="260" width="230" height="60" as="geometry" />
        </mxCell>
        <mxCell id="fC6sDNkktZNIzBsTSUob-3" value="" style="line;strokeWidth=1;fillColor=none;align=left;verticalAlign=middle;spacingTop=-1;spacingLeft=3;spacingRight=3;rotatable=0;labelPosition=right;points=[];portConstraint=eastwest;strokeColor=inherit;" parent="fC6sDNkktZNIzBsTSUob-1" vertex="1">
          <mxGeometry y="26" width="230" height="8" as="geometry" />
        </mxCell>
        <mxCell id="fC6sDNkktZNIzBsTSUob-4" value="LoadFromFile(File):StudentManager&lt;div&gt;&lt;br&gt;&lt;/div&gt;" style="text;strokeColor=none;fillColor=none;align=left;verticalAlign=top;spacingLeft=4;spacingRight=4;overflow=hidden;rotatable=0;points=[[0,0.5],[1,0.5]];portConstraint=eastwest;whiteSpace=wrap;html=1;" parent="fC6sDNkktZNIzBsTSUob-1" vertex="1">
          <mxGeometry y="34" width="230" height="26" as="geometry" />
        </mxCell>
        <mxCell id="fC6sDNkktZNIzBsTSUob-12" value="" style="endArrow=open;endFill=1;endSize=12;html=1;rounded=0;exitX=0.479;exitY=0.979;exitDx=0;exitDy=0;exitPerimeter=0;" parent="1" source="fC6sDNkktZNIzBsTSUob-4" edge="1">
          <mxGeometry width="160" relative="1" as="geometry">
            <mxPoint x="370" y="420" as="sourcePoint" />
            <mxPoint x="400" y="400" as="targetPoint" />
          </mxGeometry>
        </mxCell>
        <mxCell id="fC6sDNkktZNIzBsTSUob-13" value="StudentManager" style="swimlane;fontStyle=1;align=center;verticalAlign=top;childLayout=stackLayout;horizontal=1;startSize=26;horizontalStack=0;resizeParent=1;resizeParentMax=0;resizeLast=0;collapsible=1;marginBottom=0;whiteSpace=wrap;html=1;" parent="1" vertex="1">
          <mxGeometry x="270" y="400" width="260" height="130" as="geometry" />
        </mxCell>
        <mxCell id="fC6sDNkktZNIzBsTSUob-15" value="" style="line;strokeWidth=1;fillColor=none;align=left;verticalAlign=middle;spacingTop=-1;spacingLeft=3;spacingRight=3;rotatable=0;labelPosition=right;points=[];portConstraint=eastwest;strokeColor=inherit;" parent="fC6sDNkktZNIzBsTSUob-13" vertex="1">
          <mxGeometry y="26" width="260" height="8" as="geometry" />
        </mxCell>
        <mxCell id="fC6sDNkktZNIzBsTSUob-16" value="AddStudent(string, string)&lt;div&gt;FindStudentByName(string):Student[*]&lt;/div&gt;&lt;div&gt;FindStudentById(string): Student&lt;/div&gt;&lt;div&gt;DeleteStudentById(string)&lt;/div&gt;&lt;div&gt;ModifyStudentName(Student)&lt;/div&gt;&lt;div&gt;ModifyStudentId(Student)&lt;/div&gt;&lt;div&gt;&lt;br&gt;&lt;/div&gt;" style="text;strokeColor=none;fillColor=none;align=left;verticalAlign=top;spacingLeft=4;spacingRight=4;overflow=hidden;rotatable=0;points=[[0,0.5],[1,0.5]];portConstraint=eastwest;whiteSpace=wrap;html=1;" parent="fC6sDNkktZNIzBsTSUob-13" vertex="1">
          <mxGeometry y="34" width="260" height="96" as="geometry" />
        </mxCell>
        <mxCell id="fC6sDNkktZNIzBsTSUob-17" value="" style="endArrow=open;endFill=1;endSize=12;html=1;rounded=0;" parent="1" source="fC6sDNkktZNIzBsTSUob-16" target="fC6sDNkktZNIzBsTSUob-18" edge="1">
          <mxGeometry width="160" relative="1" as="geometry">
            <mxPoint x="370" y="590" as="sourcePoint" />
            <mxPoint x="280" y="590" as="targetPoint" />
          </mxGeometry>
        </mxCell>
        <mxCell id="fC6sDNkktZNIzBsTSUob-18" value="Student" style="swimlane;fontStyle=1;align=center;verticalAlign=top;childLayout=stackLayout;horizontal=1;startSize=26;horizontalStack=0;resizeParent=1;resizeParentMax=0;resizeLast=0;collapsible=1;marginBottom=0;whiteSpace=wrap;html=1;" parent="1" vertex="1">
          <mxGeometry x="275" y="583" width="250" height="270" as="geometry">
            <mxRectangle x="320" y="585" width="80" height="30" as="alternateBounds" />
          </mxGeometry>
        </mxCell>
        <mxCell id="fC6sDNkktZNIzBsTSUob-19" value="id:string&lt;div&gt;name:string&lt;/div&gt;&lt;div&gt;&lt;font style=&quot;color: light-dark(rgb(0, 0, 255), rgb(0, 74, 74));&quot;&gt;grades:Dictionary&amp;lt;string,decimal&amp;gt;&lt;/font&gt;&lt;/div&gt;&lt;div&gt;&lt;font style=&quot;color: light-dark(rgb(0, 0, 255), rgb(0, 74, 74));&quot;&gt;average:decimal&lt;/font&gt;&lt;/div&gt;" style="text;strokeColor=none;fillColor=none;align=left;verticalAlign=top;spacingLeft=4;spacingRight=4;overflow=hidden;rotatable=0;points=[[0,0.5],[1,0.5]];portConstraint=eastwest;whiteSpace=wrap;html=1;" parent="fC6sDNkktZNIzBsTSUob-18" vertex="1">
          <mxGeometry y="26" width="250" height="64" as="geometry" />
        </mxCell>
        <mxCell id="fC6sDNkktZNIzBsTSUob-20" value="" style="line;strokeWidth=1;fillColor=none;align=left;verticalAlign=middle;spacingTop=-1;spacingLeft=3;spacingRight=3;rotatable=0;labelPosition=right;points=[];portConstraint=eastwest;strokeColor=inherit;" parent="fC6sDNkktZNIzBsTSUob-18" vertex="1">
          <mxGeometry y="90" width="250" height="8" as="geometry" />
        </mxCell>
        <mxCell id="fC6sDNkktZNIzBsTSUob-21" value="GetId():string&lt;div&gt;GetName():string&lt;/div&gt;&lt;div&gt;SetId(string):void&lt;/div&gt;&lt;div&gt;SetName(string):void&lt;/div&gt;&lt;div&gt;MatchesID(string):bool&lt;/div&gt;&lt;div&gt;&lt;font style=&quot;color: light-dark(rgb(0, 0, 255), rgb(237, 237, 237));&quot;&gt;GetGrades()&lt;/font&gt;:&lt;span style=&quot;color: rgb(0, 0, 255); background-color: transparent;&quot;&gt;Dictionary&amp;lt;string,decimal&amp;gt;&lt;/span&gt;&lt;/div&gt;" style="text;strokeColor=none;fillColor=none;align=left;verticalAlign=top;spacingLeft=4;spacingRight=4;overflow=hidden;rotatable=0;points=[[0,0.5],[1,0.5]];portConstraint=eastwest;whiteSpace=wrap;html=1;" parent="fC6sDNkktZNIzBsTSUob-18" vertex="1">
          <mxGeometry y="98" width="250" height="172" as="geometry" />
        </mxCell>
        <mxCell id="fC6sDNkktZNIzBsTSUob-22" value="&lt;font style=&quot;font-size: 20px;&quot;&gt;*&lt;/font&gt;" style="text;html=1;align=center;verticalAlign=middle;resizable=0;points=[];autosize=1;strokeColor=none;fillColor=none;" parent="1" vertex="1">
          <mxGeometry x="405" y="543" width="30" height="40" as="geometry" />
        </mxCell>
      </root>
    </mxGraphModel>
  </diagram>
</mxfile>
